<?xml version="1.0" encoding="utf-8"?>
<!-- Generator: Adobe Illustrator 22.0.0, SVG Export Plug-In . SVG Version: 6.00 Build 0)  -->
<svg version="1.1" id="Слой_1" xmlns="http://www.w3.org/2000/svg" xmlns:xlink="http://www.w3.org/1999/xlink" x="0px" y="0px"
	 viewBox="0 0 100 100" style="enable-background:new 0 0 100 100;" xml:space="preserve">
<style type="text/css">
	.st0{fill:url(#SVGID_1_);}
	.st1{fill:#223C50;}
	.st2{fill:#C1D6E4;}
	.st3{fill:url(#SVGID_2_);}
	.st4{fill:url(#SVGID_3_);}
	.st5{fill:url(#SVGID_4_);}
	.st6{fill:url(#SVGID_5_);}
	.st7{fill:url(#SVGID_6_);}
	.st8{fill:#FFFFFF;}
</style>
<g>
	<g>
		<linearGradient id="SVGID_1_" gradientUnits="userSpaceOnUse" x1="13.853" y1="57.2505" x2="79.3682" y2="57.2505">
			<stop  offset="0" style="stop-color:#1570A3"/>
			<stop  offset="1" style="stop-color:#B9D7E4"/>
		</linearGradient>
		<path class="st0" d="M13.9,36.9v36.7c0,2.2,1.8,4,4,4h57.6c2.2,0,4-1.8,4-4V36.9H13.9z"/>
		<g>
			<rect x="13.9" y="36.9" class="st1" width="65.5" height="8.9"/>
			<polygon class="st2" points="15.6,45.9 22.2,45.9 26.4,36.9 19.8,36.9 			"/>
			<polygon class="st2" points="28.4,45.9 35,45.9 39.2,36.9 32.6,36.9 			"/>
			<polygon class="st2" points="41.2,45.9 47.8,45.9 52,36.9 45.4,36.9 			"/>
			<polygon class="st2" points="54,45.9 60.6,45.9 64.8,36.9 58.2,36.9 			"/>
			<polygon class="st2" points="66.8,45.9 73.4,45.9 77.6,36.9 71,36.9 			"/>
		</g>
		<g>
			<linearGradient id="SVGID_2_" gradientUnits="userSpaceOnUse" x1="12.4434" y1="27.1966" x2="77.9602" y2="27.1966">
				<stop  offset="0" style="stop-color:#1570A3"/>
				<stop  offset="1" style="stop-color:#B9D7E4"/>
			</linearGradient>
			<path class="st3" d="M78,25.6l-1-5.6c-0.4-2.2-2.5-3.6-4.6-3.2L15.7,27.4c-2.2,0.4-3.6,2.5-3.2,4.6l1,5.6L78,25.6z"/>
			<polygon class="st2" points="25.4,35.4 31.8,34.2 25.6,25.5 19.2,26.7 			"/>
			<polygon class="st2" points="38,33 44.4,31.8 38.2,23.2 31.8,24.4 			"/>
			<polygon class="st2" points="50.5,30.7 57,29.5 50.8,20.9 44.3,22.1 			"/>
			<polygon class="st2" points="63.1,28.4 69.6,27.2 63.4,18.6 56.9,19.7 			"/>
			<path class="st2" d="M72.3,16.9l-2.8,0.5l6.2,8.6l2.3-0.4l-1-5.6C76.5,17.9,74.5,16.5,72.3,16.9z"/>
		</g>
	</g>
	<rect x="20.6" y="57.2" class="st1" width="17.3" height="12.3"/>
	<circle class="st2" cx="17.4" cy="33" r="1.8"/>
	<g>
		<linearGradient id="SVGID_3_" gradientUnits="userSpaceOnUse" x1="22.9335" y1="61.3148" x2="34.9842" y2="61.3148">
			<stop  offset="0" style="stop-color:#9FDBE9;stop-opacity:0"/>
			<stop  offset="1" style="stop-color:#9FDBE9"/>
		</linearGradient>
		<path class="st4" d="M34.4,61.9H23.5c-0.3,0-0.6-0.2-0.6-0.6l0,0c0-0.3,0.2-0.6,0.6-0.6h10.9c0.3,0,0.6,0.2,0.6,0.6l0,0
			C35,61.6,34.7,61.9,34.4,61.9z"/>
		<linearGradient id="SVGID_4_" gradientUnits="userSpaceOnUse" x1="22.9335" y1="63.691" x2="34.9842" y2="63.691">
			<stop  offset="0" style="stop-color:#9FDBE9;stop-opacity:0"/>
			<stop  offset="1" style="stop-color:#9FDBE9"/>
		</linearGradient>
		<path class="st5" d="M34.4,64.2H23.5c-0.3,0-0.6-0.2-0.6-0.6v0c0-0.3,0.2-0.6,0.6-0.6h10.9c0.3,0,0.6,0.2,0.6,0.6v0
			C35,64,34.7,64.2,34.4,64.2z"/>
		<linearGradient id="SVGID_5_" gradientUnits="userSpaceOnUse" x1="22.9335" y1="66.0672" x2="34.9842" y2="66.0672">
			<stop  offset="0" style="stop-color:#9FDBE9;stop-opacity:0"/>
			<stop  offset="1" style="stop-color:#9FDBE9"/>
		</linearGradient>
		<path class="st6" d="M34.4,66.6H23.5c-0.3,0-0.6-0.2-0.6-0.6l0,0c0-0.3,0.2-0.6,0.6-0.6h10.9c0.3,0,0.6,0.2,0.6,0.6l0,0
			C35,66.4,34.7,66.6,34.4,66.6z"/>
	</g>
	<g>
		<linearGradient id="SVGID_6_" gradientUnits="userSpaceOnUse" x1="55.9892" y1="72.815" x2="87.5566" y2="72.815">
			<stop  offset="0" style="stop-color:#F28B6C"/>
			<stop  offset="1" style="stop-color:#C7586B"/>
		</linearGradient>
		<path class="st7" d="M84.4,83.2H59.1c-1.7,0-3.1-1.4-3.1-3.1V65.6c0-1.7,1.4-3.1,3.1-3.1h25.3c1.7,0,3.1,1.4,3.1,3.1V80
			C87.6,81.7,86.1,83.2,84.4,83.2z"/>
		<polygon class="st8" points="69.5,69.7 76.8,73.4 69.5,77 		"/>
	</g>
</g>
</svg>
